<?xml version="1.0" encoding="utf-8"?>
<!-- Generator: Adobe Illustrator 23.0.3, SVG Export Plug-In . SVG Version: 6.00 Build 0)  -->
<svg version="1.1" id="Layer_1" xmlns="http://www.w3.org/2000/svg" xmlns:xlink="http://www.w3.org/1999/xlink" x="0px" y="0px"
	 viewBox="0 0 2000 2000" style="enable-background:new 0 0 2000 2000;" xml:space="preserve">
<style type="text/css">
	.st0{fill:#2FB1E9;}
	.st1{fill:#1A3768;}
</style>
<g>
	<g>
		<g>
			<path class="st0" d="M447.42,1198.65L447.42,1198.65c-4.24,4.25-11.12,4.25-15.36,0.01l-27.97-27.97l-7.68-7.68
				c-4.24-4.24-4.24-11.11,0-15.35l7.68-7.69l15.19-15.19c-8.31,8.5-8.25,22.13,0.17,30.56l27.96,27.96
				C451.66,1187.53,451.66,1194.41,447.42,1198.65z"/>
			<path class="st1" d="M447.42,1127.36l-27.96,27.97c-8.43-8.43-8.49-22.06-0.17-30.56l12.78-12.77c4.24-4.24,11.12-4.24,15.36,0
				l0,0C451.66,1116.25,451.66,1123.12,447.42,1127.36z"/>
		</g>
		<g>
			<path class="st0" d="M1018.85,1180.84L1018.85,1180.84c-4.25-4.24-4.25-11.12-0.01-15.36l27.97-27.97l7.68-7.68
				c4.24-4.24,11.11-4.24,15.35,0l7.69,7.68l15.19,15.19c-8.5-8.31-22.13-8.25-30.56,0.18l-27.96,27.96
				C1029.97,1185.07,1023.09,1185.07,1018.85,1180.84z"/>
			<path class="st1" d="M1090.14,1180.83l-27.97-27.96c8.43-8.43,22.06-8.49,30.56-0.18l12.77,12.78c4.24,4.24,4.24,11.12,0,15.36
				l0,0C1101.26,1185.07,1094.38,1185.07,1090.14,1180.83z"/>
		</g>
		<g>
			<path class="st0" d="M857.41,1183.75L857.41,1183.75c-1.91,5.69-8.07,8.76-13.75,6.85l-37.5-12.58l-10.29-3.45
				c-5.68-1.91-8.75-8.06-6.84-13.75l3.45-10.31l6.84-20.37c-3.66,11.31,2.47,23.49,13.77,27.29l37.49,12.58
				C856.25,1171.92,859.31,1178.07,857.41,1183.75z"/>
			<path class="st1" d="M825.65,1119.93l-12.58,37.5c-11.3-3.79-17.42-15.97-13.77-27.29l5.75-17.12c1.91-5.68,8.06-8.74,13.75-6.84
				l0,0C824.5,1108.09,827.56,1114.25,825.65,1119.93z"/>
		</g>
		<path class="st1" d="M454.86,1155.46c0-21.02,15-34.41,33.61-34.41c18.61,0,33.61,13.39,33.61,34.41c0,21.02-15,33.88-33.61,33.88
			C469.85,1189.34,454.86,1176.49,454.86,1155.46z M515.65,1155.46c0-17.14-12.18-28.25-27.18-28.25s-27.18,11.11-27.18,28.25
			s12.18,27.45,27.18,27.45S515.65,1172.6,515.65,1155.46z"/>
		<path class="st1" d="M600.67,1094.67v93.73h-6.43v-14.6c-5.49,10.04-16.34,15.67-27.58,15.67c-18.48,0-33.07-12.18-33.07-34.14
			c0-21.82,14.73-34.14,33.21-34.14c11.38,0,22.09,4.82,27.45,15.53v-42.04H600.67z M540.01,1155.33
			c0,18.34,12.18,27.72,27.05,27.72c15.53,0,27.05-11.38,27.05-27.85c0-16.47-11.78-27.72-27.05-27.72
			C552.2,1127.48,540.01,1136.72,540.01,1155.33z"/>
		<path class="st1" d="M617.27,1155.33c0-19.82,15-34.14,33.61-34.14c18.61,0,35.22,11.38,32.67,37.22h-59.58
			c1.34,15.53,13.26,24.5,26.91,24.5c8.7,0,18.88-3.48,23.83-10.04l4.69,3.75c-6.43,8.44-17.94,12.72-28.52,12.72
			C632.27,1189.34,617.27,1176.35,617.27,1155.33z M677.66,1152.65c-0.13-16.34-10.85-25.44-26.78-25.44
			c-13.66,0-25.44,9.24-26.91,25.44H677.66z"/>
		<path class="st1" d="M768.61,1122.26c0,22.09,0,44.05,0,66.14h-6.56v-14.06c-6.43,10.31-16.34,15.13-27.05,15.13
			c-18.48,0-33.61-13.93-33.61-34.14c0-20.22,15.13-33.88,33.61-33.88c10.71,0,21.56,4.95,27.05,15.26v-14.46H768.61z
			 M707.96,1155.33c0,16.6,12.05,27.72,27.05,27.72c36.82,0,36.82-55.3,0-55.3C720.01,1127.75,707.96,1138.73,707.96,1155.33z"/>
		<path class="st1" d="M860.47,1155.46c0-21.02,15-34.41,33.61-34.41s33.61,13.39,33.61,34.41c0,21.02-15,33.88-33.61,33.88
			S860.47,1176.49,860.47,1155.46z M921.26,1155.46c0-17.14-12.18-28.25-27.18-28.25s-27.18,11.11-27.18,28.25
			s12.18,27.45,27.18,27.45S921.26,1172.6,921.26,1155.46z"/>
		<path class="st1" d="M956.61,1102.31v19.95h22.49v5.49h-22.49v40.3c0,8.97,1.87,15.26,12.18,15.26c3.21,0,6.83-1.07,10.18-2.68
			l2.28,5.36c-4.15,2.01-8.3,3.35-12.45,3.35c-14.06,0-18.61-8.3-18.61-21.29v-40.3h-14.06v-5.49h14.06v-19.28L956.61,1102.31z"/>
		<path class="st1" d="M1173.22,1179.16c-6.7,6.7-15.4,9.91-24.1,9.91c-18.61,0-34.01-12.85-34.01-33.74
			c0-20.89,14.86-33.74,34.01-33.74c8.7,0,17.41,3.35,24.1,9.91l-4.28,4.15c-5.36-5.36-12.72-7.9-19.82-7.9
			c-15,0-27.58,9.77-27.58,27.58s12.59,27.58,27.58,27.58c7.1,0,14.33-2.81,19.68-8.17L1173.22,1179.16z"/>
		<path class="st1" d="M1250.21,1122.26c0,22.09,0,44.05,0,66.14h-6.56v-14.06c-6.43,10.31-16.34,15.13-27.05,15.13
			c-18.48,0-33.61-13.93-33.61-34.14c0-20.22,15.13-33.88,33.61-33.88c10.71,0,21.56,4.95,27.05,15.26v-14.46H1250.21z
			 M1189.56,1155.33c0,16.6,12.05,27.72,27.05,27.72c36.82,0,36.82-55.3,0-55.3C1201.61,1127.75,1189.56,1138.73,1189.56,1155.33z"
			/>
		<path class="st1" d="M1331.48,1094.67v93.73h-6.43v-14.6c-5.49,10.04-16.34,15.67-27.58,15.67c-18.48,0-33.07-12.18-33.07-34.14
			c0-21.82,14.73-34.14,33.21-34.14c11.38,0,22.09,4.82,27.45,15.53v-42.04H1331.48z M1270.83,1155.33
			c0,18.34,12.18,27.72,27.05,27.72c15.53,0,27.05-11.38,27.05-27.85c0-16.47-11.78-27.72-27.05-27.72
			C1283.01,1127.48,1270.83,1136.72,1270.83,1155.33z"/>
		<path class="st1" d="M1348.08,1155.33c0-19.82,15-34.14,33.61-34.14c18.61,0,35.21,11.38,32.67,37.22h-59.58
			c1.34,15.53,13.25,24.5,26.91,24.5c8.7,0,18.88-3.48,23.83-10.04l4.69,3.75c-6.43,8.44-17.94,12.72-28.52,12.72
			C1363.08,1189.34,1348.08,1176.35,1348.08,1155.33z M1408.47,1152.65c-0.13-16.34-10.84-25.44-26.78-25.44
			c-13.66,0-25.44,9.24-26.91,25.44H1408.47z"/>
		<path class="st1" d="M1528.04,1188.4v-39.63c0-12.72-8.57-21.69-21.16-21.69s-21.29,9.37-21.29,22.09v39.23h-6.56v-39.23
			c0-12.72-8.7-21.96-21.29-21.96c-12.59,0-21.16,9.24-21.16,21.96v39.23h-6.56v-66.14h6.16l0.13,10.98
			c4.55-8.7,12.99-12.32,21.56-12.32c10.04,0,20.62,4.55,24.5,16.34c4.02-10.85,14.33-16.34,24.5-16.34
			c16.2,0,27.72,11.38,27.72,27.85v39.63H1528.04z"/>
		<path class="st1" d="M1606.77,1122.26l-40.3,93.73h-6.96l12.19-28.39l-26.51-65.34h7.1l15.4,39.1l7.77,19.15l7.63-19.28
			l16.6-38.96H1606.77z"/>
	</g>
	<g>
		<g>
			<path class="st0" d="M936.89,1038.9L936.89,1038.9c-12.04,12.05-31.56,12.06-43.6,0.02l-79.36-79.36l-21.79-21.79
				c-12.03-12.03-12.03-31.53-0.01-43.57l21.8-21.82l43.11-43.11c-23.58,24.12-23.42,62.81,0.5,86.72l79.34,79.34
				C948.91,1007.36,948.91,1026.87,936.89,1038.9z"/>
			<path class="st1" d="M936.88,836.62l-79.34,79.37c-23.92-23.91-24.08-62.6-0.5-86.72l36.26-36.23
				c12.04-12.03,31.54-12.02,43.57,0.01l0,0C948.91,805.07,948.91,824.58,936.88,836.62z"/>
		</g>
		<g>
			<path class="st0" d="M1063.11,793.06L1063.11,793.06c12.04-12.05,31.56-12.06,43.6-0.02l79.36,79.36l21.79,21.79
				c12.03,12.03,12.04,31.53,0.01,43.57l-21.8,21.82l-43.11,43.11c23.58-24.12,23.42-62.81-0.5-86.72l-79.34-79.34
				C1051.09,824.6,1051.09,805.1,1063.11,793.06z"/>
			<path class="st1" d="M1063.12,995.34l79.34-79.37c23.92,23.91,24.08,62.6,0.5,86.72l-36.26,36.23
				c-12.04,12.03-31.54,12.02-43.57-0.01v0C1051.09,1026.89,1051.09,1007.38,1063.12,995.34z"/>
		</g>
	</g>
</g>
</svg>
